<svg width="162" height="23" viewBox="0 0 162 23" fill="none" xmlns="http://www.w3.org/2000/svg">
<path d="M13.502 17.2021V5.92871H10.7676L7.56445 14.0225H7.50195L4.29883 5.92871H1.56445V17.2021H3.66602V9.59277H3.72852L6.79102 17.2021H8.27539L11.3379 9.59277H11.4004V17.2021H13.502ZM20.7285 14.6396C20.5176 15.2803 19.877 15.6943 19.041 15.6943C17.877 15.6943 17.1191 14.874 17.1191 13.6787V13.5381H22.8926V12.8428C22.8926 10.2959 21.3535 8.64746 18.916 8.64746C16.4395 8.64746 14.877 10.3818 14.877 13.0537C14.877 15.7334 16.4238 17.3818 19.002 17.3818C21.0723 17.3818 22.5723 16.2803 22.8223 14.6396H20.7285ZM18.9395 10.335C19.9551 10.335 20.6504 11.0693 20.6973 12.1396H17.1426C17.2207 11.0928 17.9395 10.335 18.9395 10.335ZM27.9004 20.3584C30.4082 20.3584 32.0801 19.0771 32.0801 17.085V8.82715H29.8301V10.2881H29.791C29.3535 9.32715 28.4082 8.69434 27.2051 8.69434C25.0801 8.69434 23.7676 10.3271 23.7676 12.9834C23.7676 15.6006 25.1191 17.1787 27.166 17.1787C28.377 17.1787 29.3613 16.5693 29.752 15.6787H29.7988V17.1475C29.7988 18.1162 29.1426 18.7646 27.9629 18.7646C27.0957 18.7646 26.4395 18.374 26.2598 17.7959H24.0254C24.2051 19.2881 25.6973 20.3584 27.9004 20.3584ZM27.9395 15.4209C26.8066 15.4209 26.1035 14.5303 26.1035 12.999C26.1035 11.4756 26.8145 10.5225 27.9395 10.5225C29.0801 10.5225 29.8066 11.4912 29.8066 12.999C29.8066 14.5146 29.0801 15.4209 27.9395 15.4209ZM36.0566 17.335C37.1035 17.335 38.1426 16.8115 38.6113 15.9209H38.6582V17.2021H40.8613V11.4443C40.8613 9.75684 39.4629 8.64746 37.3145 8.64746C35.0957 8.64746 33.7129 9.76465 33.627 11.3896H35.7129C35.8223 10.7725 36.3613 10.3506 37.2129 10.3506C38.0723 10.3506 38.6191 10.8037 38.6191 11.585V12.1396L36.5098 12.2646C34.4238 12.3896 33.252 13.2725 33.252 14.7959C33.252 16.3037 34.4629 17.335 36.0566 17.335ZM36.8066 15.6865C36.0332 15.6865 35.5176 15.2959 35.5176 14.6709C35.5176 14.0771 36.002 13.6943 36.8535 13.6318L38.6191 13.5225V14.1318C38.6191 15.0381 37.7988 15.6865 36.8066 15.6865ZM42.3379 17.2021H44.6191V12.3975C44.6191 11.3115 45.2676 10.5615 46.291 10.5615C47.3145 10.5615 47.8301 11.1865 47.8301 12.2803V17.2021H50.1113V11.8037C50.1113 9.84277 49.0645 8.6709 47.2051 8.6709C45.916 8.6709 45.0332 9.28027 44.5879 10.3193H44.541V8.82715H42.3379V17.2021ZM65.002 12.4678V11.1943H60.252V12.9131H62.7051L62.6973 13.0928C62.6504 14.4912 61.5801 15.4365 60.041 15.4365C58.166 15.4365 56.9785 13.9443 56.9785 11.499C56.9785 9.10059 58.0957 7.68652 59.9551 7.68652C61.2285 7.68652 62.1895 8.38965 62.5332 9.56934H64.9004C64.5645 7.28809 62.5801 5.7334 59.9473 5.7334C56.6348 5.7334 54.5723 7.9209 54.5723 11.5303C54.5723 15.1943 56.6348 17.3896 60.002 17.3896C63.1426 17.3896 65.002 15.5381 65.002 12.4678ZM68.7754 17.335C69.8223 17.335 70.8613 16.8115 71.3301 15.9209H71.377V17.2021H73.5801V11.4443C73.5801 9.75684 72.1816 8.64746 70.0332 8.64746C67.8145 8.64746 66.4316 9.76465 66.3457 11.3896H68.4316C68.541 10.7725 69.0801 10.3506 69.9316 10.3506C70.791 10.3506 71.3379 10.8037 71.3379 11.585V12.1396L69.2285 12.2646C67.1426 12.3896 65.9707 13.2725 65.9707 14.7959C65.9707 16.3037 67.1816 17.335 68.7754 17.335ZM69.5254 15.6865C68.752 15.6865 68.2363 15.2959 68.2363 14.6709C68.2363 14.0771 68.7207 13.6943 69.5723 13.6318L71.3379 13.5225V14.1318C71.3379 15.0381 70.5176 15.6865 69.5254 15.6865ZM75.0566 17.2021H77.3379V12.5225C77.3379 11.3428 77.9941 10.6553 79.1191 10.6553C79.4473 10.6553 79.7598 10.71 79.9473 10.7881V8.78027C79.791 8.7334 79.5645 8.69434 79.2988 8.69434C78.3145 8.69434 77.6035 9.27246 77.3066 10.335H77.2598V8.82715H75.0566V17.2021ZM88.2129 11.9443C88.1113 10.0459 86.6738 8.64746 84.4082 8.64746C81.9004 8.64746 80.2988 10.3193 80.2988 13.0068C80.2988 15.7412 81.9004 17.3818 84.4238 17.3818C86.627 17.3818 88.1035 16.1084 88.2207 14.1318H86.0957C85.9551 15.0459 85.3613 15.5928 84.4473 15.5928C83.3145 15.5928 82.6113 14.6553 82.6113 13.0068C82.6113 11.3896 83.3145 10.4365 84.4395 10.4365C85.377 10.4365 85.9629 11.0615 86.0957 11.9443H88.2129ZM90.4941 7.69434C91.1582 7.69434 91.6816 7.16309 91.6816 6.52246C91.6816 5.87402 91.1582 5.35059 90.4941 5.35059C89.8301 5.35059 89.3066 5.87402 89.3066 6.52246C89.3066 7.16309 89.8301 7.69434 90.4941 7.69434ZM89.3613 17.2021H91.6426V8.82715H89.3613V17.2021ZM95.6504 17.335C96.6973 17.335 97.7363 16.8115 98.2051 15.9209H98.252V17.2021H100.455V11.4443C100.455 9.75684 99.0566 8.64746 96.9082 8.64746C94.6895 8.64746 93.3066 9.76465 93.2207 11.3896H95.3066C95.416 10.7725 95.9551 10.3506 96.8066 10.3506C97.666 10.3506 98.2129 10.8037 98.2129 11.585V12.1396L96.1035 12.2646C94.0176 12.3896 92.8457 13.2725 92.8457 14.7959C92.8457 16.3037 94.0566 17.335 95.6504 17.335ZM96.4004 15.6865C95.627 15.6865 95.1113 15.2959 95.1113 14.6709C95.1113 14.0771 95.5957 13.6943 96.4473 13.6318L98.2129 13.5225V14.1318C98.2129 15.0381 97.3926 15.6865 96.4004 15.6865Z" fill="black"/>
<path d="M107.094 5.92871V17.2021H108.5V13.1787H111.102C113.219 13.1787 114.727 11.6865 114.727 9.5459C114.727 7.41309 113.234 5.92871 111.117 5.92871H107.094ZM108.5 7.17871H110.75C112.367 7.17871 113.281 8.05371 113.281 9.5459C113.281 11.0459 112.359 11.9287 110.75 11.9287H108.5V7.17871ZM119.109 17.3428C121.352 17.3428 122.867 15.7256 122.867 13.1396C122.867 10.5459 121.352 8.93652 119.109 8.93652C116.859 8.93652 115.344 10.5459 115.344 13.1396C115.344 15.7256 116.859 17.3428 119.109 17.3428ZM119.109 16.1475C117.672 16.1475 116.727 15.0537 116.727 13.1396C116.727 11.2256 117.672 10.1318 119.109 10.1318C120.547 10.1318 121.484 11.2256 121.484 13.1396C121.484 15.0537 120.547 16.1475 119.109 16.1475ZM124.242 17.2021H125.602V12.1396C125.602 10.9912 126.289 10.2334 127.344 10.2334C127.672 10.2334 127.961 10.2725 128.07 10.3115V8.99121C127.961 8.97559 127.758 8.93652 127.523 8.93652C126.57 8.93652 125.82 9.50684 125.555 10.4053H125.523V9.07715H124.242V17.2021ZM129.93 7.11621V9.07715H128.719V10.1943H129.93V15.0928C129.93 16.6553 130.508 17.2646 132 17.2646C132.32 17.2646 132.695 17.2412 132.859 17.2021V16.0615C132.766 16.0771 132.453 16.1006 132.297 16.1006C131.602 16.1006 131.289 15.7646 131.289 15.0225V10.1943H132.867V9.07715H131.289V7.11621H129.93ZM134.758 17.2021H136.117V10.1943H137.773V9.07715H136.109V8.17871C136.109 7.37402 136.461 6.9834 137.195 6.9834C137.422 6.9834 137.648 7.00684 137.812 7.03027V5.92871C137.617 5.89746 137.289 5.86621 136.984 5.86621C135.484 5.86621 134.758 6.6084 134.758 8.1709V9.07715H133.625V10.1943H134.758V17.2021ZM142.156 17.3428C144.398 17.3428 145.914 15.7256 145.914 13.1396C145.914 10.5459 144.398 8.93652 142.156 8.93652C139.906 8.93652 138.391 10.5459 138.391 13.1396C138.391 15.7256 139.906 17.3428 142.156 17.3428ZM142.156 16.1475C140.719 16.1475 139.773 15.0537 139.773 13.1396C139.773 11.2256 140.719 10.1318 142.156 10.1318C143.594 10.1318 144.531 11.2256 144.531 13.1396C144.531 15.0537 143.594 16.1475 142.156 16.1475ZM147.359 17.2021H148.719V5.92871H147.359V17.2021ZM151.305 7.63184C151.781 7.63184 152.156 7.24902 152.156 6.78027C152.156 6.30371 151.781 5.92871 151.305 5.92871C150.836 5.92871 150.453 6.30371 150.453 6.78027C150.453 7.24902 150.836 7.63184 151.305 7.63184ZM150.625 17.2021H151.984V9.07715H150.625V17.2021ZM157.188 17.3428C159.43 17.3428 160.945 15.7256 160.945 13.1396C160.945 10.5459 159.43 8.93652 157.188 8.93652C154.938 8.93652 153.422 10.5459 153.422 13.1396C153.422 15.7256 154.938 17.3428 157.188 17.3428ZM157.188 16.1475C155.75 16.1475 154.805 15.0537 154.805 13.1396C154.805 11.2256 155.75 10.1318 157.188 10.1318C158.625 10.1318 159.562 11.2256 159.562 13.1396C159.562 15.0537 158.625 16.1475 157.188 16.1475Z" fill="black"/>
</svg>
