<svg width="26" height="25" viewBox="0 0 26 25" fill="none" xmlns="http://www.w3.org/2000/svg">
<path d="M12.7825 6.17963C11.1038 6.17963 9.49394 6.84647 8.30696 8.03346C7.11997 9.22044 6.45313 10.8303 6.45312 12.509C6.45313 14.1877 7.11997 15.7976 8.30696 16.9845C9.49394 18.1715 11.1038 18.8384 12.7825 18.8384C14.4612 18.8384 16.0711 18.1715 17.258 16.9845C18.445 15.7976 19.1119 14.1877 19.1119 12.509C19.1119 10.8303 18.445 9.22044 17.258 8.03346C16.0711 6.84647 14.4612 6.17963 12.7825 6.17963V6.17963ZM12.7825 16.6195C11.692 16.6195 10.6461 16.1863 9.87494 15.4152C9.10381 14.6441 8.6706 13.5982 8.6706 12.5076C8.6706 11.4171 9.10381 10.3712 9.87494 9.60008C10.6461 8.82895 11.692 8.39573 12.7825 8.39573C13.873 8.39573 14.9189 8.82895 15.6901 9.60008C16.4612 10.3712 16.8944 11.4171 16.8944 12.5076C16.8944 13.5982 16.4612 14.6441 15.6901 15.4152C14.9189 16.1863 13.873 16.6195 12.7825 16.6195V16.6195Z" fill="white"/>
<path d="M19.3623 7.4225C20.1772 7.4225 20.8379 6.76186 20.8379 5.94692C20.8379 5.13198 20.1772 4.47134 19.3623 4.47134C18.5474 4.47134 17.8867 5.13198 17.8867 5.94692C17.8867 6.76186 18.5474 7.4225 19.3623 7.4225Z" fill="white"/>
<path d="M24.4614 4.44671C24.1446 3.62841 23.6603 2.88529 23.0397 2.26491C22.4191 1.64453 21.6758 1.16057 20.8574 0.844006C19.8997 0.484498 18.8879 0.290105 17.8651 0.269106C16.547 0.211616 16.1295 0.19519 12.7869 0.19519C9.44423 0.19519 9.01579 0.19519 7.70858 0.269106C6.68661 0.289031 5.67557 0.483464 4.7191 0.844006C3.90047 1.1602 3.15697 1.64403 2.53631 2.26446C1.91565 2.88488 1.43154 3.6282 1.11503 4.44671C0.755448 5.40435 0.561502 6.4162 0.541497 7.43893C0.482638 8.75572 0.464844 9.17321 0.464844 12.5172C0.464844 15.8598 0.464844 16.2855 0.541497 17.5955C0.562029 18.6194 0.755031 19.6295 1.11503 20.5891C1.43242 21.4073 1.91701 22.1503 2.53782 22.7706C3.15863 23.391 3.90201 23.875 4.72047 24.1918C5.67512 24.5657 6.68659 24.774 7.71132 24.8077C9.02948 24.8652 9.44697 24.883 12.7896 24.883C16.1322 24.883 16.5607 24.883 17.8679 24.8077C18.8905 24.7869 19.9022 24.593 20.8601 24.2342C21.6783 23.9169 22.4214 23.4325 23.0419 22.812C23.6625 22.1914 24.1469 21.4483 24.4642 20.6301C24.8242 19.672 25.0172 18.6618 25.0377 17.6379C25.0966 16.3211 25.1144 15.9036 25.1144 12.5596C25.1144 9.21564 25.1144 8.79131 25.0377 7.48136C25.0218 6.44418 24.8268 5.41754 24.4614 4.44671V4.44671ZM22.7942 17.4942C22.7854 18.283 22.6414 19.0645 22.3685 19.8047C22.163 20.337 21.8483 20.8204 21.4447 21.2238C21.0411 21.6271 20.5575 21.9415 20.0251 22.1468C19.2931 22.4184 18.5199 22.5624 17.7392 22.5725C16.4388 22.6327 16.072 22.6478 12.7376 22.6478C9.40043 22.6478 9.05959 22.6478 7.73459 22.5725C6.95427 22.5629 6.18143 22.4189 5.45005 22.1468C4.91578 21.9428 4.43029 21.6289 4.02496 21.2255C3.61964 20.8221 3.30353 20.3381 3.09706 19.8047C2.82802 19.0725 2.68411 18.3002 2.67136 17.5202C2.6125 16.2198 2.59882 15.853 2.59882 12.5186C2.59882 9.18279 2.59882 8.84195 2.67136 7.51558C2.68021 6.72718 2.8242 5.94613 3.09706 5.2064C3.51455 4.12641 4.37006 3.27638 5.45005 2.863C6.1818 2.59217 6.9544 2.4482 7.73459 2.4373C9.03632 2.37844 9.4018 2.36201 12.7376 2.36201C16.0734 2.36201 16.4156 2.36201 17.7392 2.4373C18.52 2.44669 19.2933 2.5907 20.0251 2.863C20.5575 3.06869 21.041 3.38342 21.4445 3.78699C21.8481 4.19055 22.1628 4.67403 22.3685 5.2064C22.6376 5.93864 22.7815 6.71094 22.7942 7.49094C22.8531 8.79268 22.8681 9.15815 22.8681 12.4939C22.8681 15.8284 22.8681 16.187 22.8093 17.4956H22.7942V17.4942Z" fill="white"/>
</svg>
