<svg width="25" height="25" viewBox="0 0 25 25" fill="none" xmlns="http://www.w3.org/2000/svg">
<path d="M23.7444 12.444C23.7444 18.6511 18.7125 23.683 12.5054 23.683C6.29827 23.683 1.26641 18.6511 1.26641 12.444C1.26641 6.2369 6.29827 1.20504 12.5054 1.20504C18.7125 1.20504 23.7444 6.2369 23.7444 12.444Z" stroke="white" stroke-width="2.4"/>
<path d="M8.61092 8.64365C9.29134 8.64365 9.84293 8.09206 9.84293 7.41164C9.84293 6.73122 9.29134 6.17963 8.61092 6.17963C7.9305 6.17963 7.37891 6.73122 7.37891 7.41164C7.37891 8.09206 7.9305 8.64365 8.61092 8.64365Z" fill="white"/>
<path d="M11.0072 9.57725V16.4124H13.1295V13.0323C13.1295 12.1404 13.2973 11.2766 14.4032 11.2766C15.4939 11.2766 15.5074 12.2963 15.5074 13.0886V16.413H17.6307V12.6646C17.6307 10.8233 17.2343 9.40833 15.0822 9.40833C14.049 9.40833 13.3564 9.97534 13.0732 10.512H13.0445V9.57725H11.0072V9.57725ZM7.54883 9.57725H9.67445V16.4124H7.54883V9.57725Z" fill="white"/>
</svg>
