<svg width="434" height="62" viewBox="0 0 434 62" fill="none" xmlns="http://www.w3.org/2000/svg">
<path d="M35.4693 46.7559V16.2254H28.0641L19.3895 38.1447H19.2203L10.5456 16.2254H3.14047V46.7559H8.83187V26.1484H9.00113L17.2949 46.7559H21.3149L29.6086 26.1484H29.7779V46.7559H35.4693ZM55.0401 39.8162C54.4688 41.5511 52.7339 42.6724 50.47 42.6724C47.3175 42.6724 45.2653 40.4509 45.2653 37.2138V36.8329H60.9007V34.9499C60.9007 28.0525 56.7327 23.5883 50.1315 23.5883C43.4245 23.5883 39.193 28.2853 39.193 35.5212C39.193 42.7782 43.3822 47.2425 50.3642 47.2425C55.971 47.2425 60.0333 44.2593 60.7103 39.8162H55.0401ZM50.195 28.1583C52.9455 28.1583 54.8285 30.1471 54.9554 33.0457H45.3287C45.5403 30.2106 47.4868 28.1583 50.195 28.1583ZM74.4627 55.3035C81.2543 55.3035 85.7821 51.8337 85.7821 46.4385V24.0749H79.6887V28.0314H79.5829C78.3981 25.429 75.838 23.7152 72.5797 23.7152C66.8249 23.7152 63.2704 28.1372 63.2704 35.3308C63.2704 42.4186 66.9306 46.6924 72.4739 46.6924C75.7534 46.6924 78.4192 45.0421 79.4771 42.6301H79.604V46.6078C79.604 49.2313 77.8268 50.9874 74.632 50.9874C72.2835 50.9874 70.5063 49.9295 70.0196 48.3638H63.9686C64.4552 52.4049 68.4963 55.3035 74.4627 55.3035ZM74.5685 41.9319C71.5007 41.9319 69.5965 39.52 69.5965 35.3731C69.5965 31.2473 71.5218 28.6661 74.5685 28.6661C77.6575 28.6661 79.6252 31.2897 79.6252 35.3731C79.6252 39.4776 77.6575 41.9319 74.5685 41.9319ZM96.5513 47.1155C99.3864 47.1155 102.2 45.698 103.47 43.286H103.597V46.7559H109.563V31.1627C109.563 26.5927 105.776 23.5883 99.9576 23.5883C93.9489 23.5883 90.204 26.6138 89.9713 31.0146H95.6203C95.9165 29.3432 97.3764 28.2006 99.6826 28.2006C102.01 28.2006 103.491 29.4278 103.491 31.5435V33.0457L97.7784 33.3843C92.1293 33.7228 88.9557 36.1136 88.9557 40.2393C88.9557 44.3227 92.2351 47.1155 96.5513 47.1155ZM98.5824 42.6513C96.4878 42.6513 95.0914 41.5934 95.0914 39.9008C95.0914 38.2928 96.4032 37.2561 98.7094 37.0868L103.491 36.7906V38.4409C103.491 40.8952 101.269 42.6513 98.5824 42.6513ZM113.562 46.7559H119.74V33.7439C119.74 30.803 121.496 28.7719 124.268 28.7719C127.039 28.7719 128.436 30.4645 128.436 33.4266V46.7559H134.614V32.136C134.614 26.8254 131.779 23.6518 126.743 23.6518C123.252 23.6518 120.861 25.3021 119.655 28.116H119.528V24.0749H113.562V46.7559ZM174.94 33.9344V30.4857H162.076V35.1403H168.72L168.699 35.627C168.572 39.4142 165.673 41.9742 161.505 41.9742C156.427 41.9742 153.211 37.9331 153.211 31.3108C153.211 24.8154 156.237 20.9859 161.272 20.9859C164.721 20.9859 167.323 22.8901 168.254 26.0849H174.665C173.755 19.9069 168.381 15.6965 161.251 15.6965C152.28 15.6965 146.695 21.6206 146.695 31.3954C146.695 41.3184 152.28 47.2636 161.399 47.2636C169.905 47.2636 174.94 42.2493 174.94 33.9344ZM185.159 47.1155C187.994 47.1155 190.808 45.698 192.078 43.286H192.205V46.7559H198.171V31.1627C198.171 26.5927 194.384 23.5883 188.566 23.5883C182.557 23.5883 178.812 26.6138 178.579 31.0146H184.228C184.525 29.3432 185.984 28.2006 188.291 28.2006C190.618 28.2006 192.099 29.4278 192.099 31.5435V33.0457L186.386 33.3843C180.737 33.7228 177.564 36.1136 177.564 40.2393C177.564 44.3227 180.843 47.1155 185.159 47.1155ZM187.19 42.6513C185.096 42.6513 183.699 41.5934 183.699 39.9008C183.699 38.2928 185.011 37.2561 187.317 37.0868L192.099 36.7906V38.4409C192.099 40.8952 189.877 42.6513 187.19 42.6513ZM202.17 46.7559H208.348V34.0825C208.348 30.8877 210.125 29.0258 213.172 29.0258C214.061 29.0258 214.907 29.1739 215.415 29.3855V23.948C214.992 23.821 214.378 23.7152 213.659 23.7152C210.993 23.7152 209.067 25.2809 208.263 28.1583H208.136V24.0749H202.17V46.7559ZM237.799 32.5168C237.524 27.3755 233.631 23.5883 227.496 23.5883C220.704 23.5883 216.367 28.116 216.367 35.3942C216.367 42.7994 220.704 47.2425 227.538 47.2425C233.504 47.2425 237.503 43.7938 237.821 38.4409H232.066C231.685 40.9164 230.077 42.3974 227.601 42.3974C224.534 42.3974 222.629 39.8585 222.629 35.3942C222.629 31.0146 224.534 28.4334 227.58 28.4334C230.119 28.4334 231.706 30.126 232.066 32.5168H237.799ZM243.977 21.0071C245.776 21.0071 247.193 19.5683 247.193 17.8334C247.193 16.0773 245.776 14.6598 243.977 14.6598C242.179 14.6598 240.761 16.0773 240.761 17.8334C240.761 19.5683 242.179 21.0071 243.977 21.0071ZM240.91 46.7559H247.088V24.0749H240.91V46.7559ZM257.941 47.1155C260.777 47.1155 263.591 45.698 264.86 43.286H264.987V46.7559H270.953V31.1627C270.953 26.5927 267.166 23.5883 261.348 23.5883C255.339 23.5883 251.594 26.6138 251.361 31.0146H257.011C257.307 29.3432 258.767 28.2006 261.073 28.2006C263.4 28.2006 264.881 29.4278 264.881 31.5435V33.0457L259.169 33.3843C253.52 33.7228 250.346 36.1136 250.346 40.2393C250.346 44.3227 253.625 47.1155 257.941 47.1155ZM259.973 42.6513C257.878 42.6513 256.482 41.5934 256.482 39.9008C256.482 38.2928 257.793 37.2561 260.1 37.0868L264.881 36.7906V38.4409C264.881 40.8952 262.66 42.6513 259.973 42.6513Z" fill="white"/>
<path d="M284.597 16.2254V46.7559H288.405V35.8597H295.451C301.184 35.8597 305.268 31.8186 305.268 26.0214C305.268 20.2454 301.227 16.2254 295.493 16.2254H284.597ZM288.405 19.6107H294.499C298.878 19.6107 301.354 21.9803 301.354 26.0214C301.354 30.0837 298.857 32.4745 294.499 32.4745H288.405V19.6107ZM317.137 47.1367C323.209 47.1367 327.314 42.7571 327.314 35.7539C327.314 28.7296 323.209 24.3711 317.137 24.3711C311.044 24.3711 306.939 28.7296 306.939 35.7539C306.939 42.7571 311.044 47.1367 317.137 47.1367ZM317.137 43.8996C313.244 43.8996 310.684 40.9375 310.684 35.7539C310.684 30.5703 313.244 27.6082 317.137 27.6082C321.03 27.6082 323.569 30.5703 323.569 35.7539C323.569 40.9375 321.03 43.8996 317.137 43.8996ZM331.038 46.7559H334.719V33.0457C334.719 29.9356 336.581 27.8833 339.437 27.8833C340.326 27.8833 341.109 27.9891 341.405 28.0949V24.5192C341.109 24.4769 340.559 24.3711 339.924 24.3711C337.343 24.3711 335.312 25.9156 334.592 28.3487H334.508V24.752H331.038V46.7559ZM346.44 19.4414V24.752H343.161V27.7775H346.44V41.0433C346.44 45.2748 348.006 46.9251 352.047 46.9251C352.915 46.9251 353.93 46.8616 354.375 46.7559V43.6668C354.121 43.7092 353.274 43.7726 352.851 43.7726C350.968 43.7726 350.122 42.8629 350.122 40.8529V27.7775H354.396V24.752H350.122V19.4414H346.44ZM359.516 46.7559H363.197V27.7775H367.683V24.752H363.176V22.3188C363.176 20.1396 364.128 19.0817 366.117 19.0817C366.731 19.0817 367.344 19.1452 367.789 19.2087V16.2254C367.26 16.1408 366.371 16.0562 365.546 16.0562C361.484 16.0562 359.516 18.0662 359.516 22.2977V24.752H356.448V27.7775H359.516V46.7559ZM379.552 47.1367C385.624 47.1367 389.729 42.7571 389.729 35.7539C389.729 28.7296 385.624 24.3711 379.552 24.3711C373.459 24.3711 369.354 28.7296 369.354 35.7539C369.354 42.7571 373.459 47.1367 379.552 47.1367ZM379.552 43.8996C375.659 43.8996 373.099 40.9375 373.099 35.7539C373.099 30.5703 375.659 27.6082 379.552 27.6082C383.445 27.6082 385.984 30.5703 385.984 35.7539C385.984 40.9375 383.445 43.8996 379.552 43.8996ZM393.643 46.7559H397.325V16.2254H393.643V46.7559ZM404.328 20.8378C405.618 20.8378 406.634 19.8011 406.634 18.5316C406.634 17.241 405.618 16.2254 404.328 16.2254C403.058 16.2254 402.022 17.241 402.022 18.5316C402.022 19.8011 403.058 20.8378 404.328 20.8378ZM402.487 46.7559H406.168V24.752H402.487V46.7559ZM420.259 47.1367C426.332 47.1367 430.436 42.7571 430.436 35.7539C430.436 28.7296 426.332 24.3711 420.259 24.3711C414.166 24.3711 410.061 28.7296 410.061 35.7539C410.061 42.7571 414.166 47.1367 420.259 47.1367ZM420.259 43.8996C416.366 43.8996 413.806 40.9375 413.806 35.7539C413.806 30.5703 416.366 27.6082 420.259 27.6082C424.152 27.6082 426.691 30.5703 426.691 35.7539C426.691 40.9375 424.152 43.8996 420.259 43.8996Z" fill="white"/>
</svg>
